<svg width="206" height="134" viewBox="0 0 206 134" fill="none" xmlns="http://www.w3.org/2000/svg">
<path fill-rule="evenodd" clip-rule="evenodd" d="M110.351 0.0439351C109.015 0.0554251 105.611 0.099861 102.786 0.135863L97.6518 0.207091L96.7341 0.423113C93.2197 1.24886 90.3709 2.75711 88.0691 5.00302C86.6727 6.36343 85.7274 7.63193 84.8052 9.37918C84.0039 10.9035 83.2854 13.1693 83.0465 14.961C82.5593 18.5474 83.2816 22.477 84.9967 25.6054C85.9664 27.3687 86.8121 28.4457 88.7792 30.4204C92.1304 33.7916 95.7567 36.2574 101.933 39.3734C104.574 40.7055 104.69 40.7737 104.403 40.8174C103.07 41.0288 100.217 41.6914 99.2634 42.0146C97.0535 42.7645 94.9034 43.889 93.271 45.146C92.721 45.5727 91.4518 46.6903 91.1569 47.0135C90.7019 47.5076 89.6325 48.8726 89.1538 49.5743C87.6861 51.7168 86.5808 54.3778 85.8309 57.5813C85.6869 58.1879 85.5911 58.7349 85.6156 58.8023C85.6555 58.9064 86.6849 58.9179 94.0853 58.8819C103.588 58.8421 104.514 58.8222 105.296 58.6544C108.751 57.9045 111.268 56.7716 113.575 54.9286C116.714 52.4192 119.072 48.4735 119.654 44.7554C119.703 44.4436 119.778 43.9572 119.818 43.6699C120.281 40.5699 119.598 36.6725 118.066 33.6798C117.129 31.8406 115.972 30.3124 114.165 28.5215C112.565 26.9374 111.651 26.1753 109.353 24.5039C106.796 22.6409 103.261 20.6064 99.268 18.6953L98.1788 18.1729L98.7893 18.0687C103.449 17.2667 106.94 15.8427 109.832 13.5646C112.581 11.3984 114.688 8.42168 116.012 4.81919C116.507 3.47103 117.277 0.594687 117.277 0.0799349C117.277 -0.0196451 117.205 -0.0196429 110.351 0.0439351ZM115.031 11.3264C114.859 12.0525 114.225 13.3448 113.698 14.0472C112.034 16.2617 108.791 18.1683 105.3 18.9902C104.969 19.066 104.697 19.1503 104.697 19.174C104.697 19.2016 105.028 19.3058 105.436 19.413C106.672 19.7324 107.709 20.1231 108.878 20.6976C112.278 22.3813 114.464 24.7191 115.058 27.3089C115.114 27.564 115.206 27.7716 115.254 27.7716C115.306 27.7716 115.441 27.3802 115.561 26.906C115.813 25.8765 116.511 24.392 117.133 23.5548C118.442 21.7991 120.812 20.0794 122.79 19.4528C123.042 19.3732 123.249 19.2897 123.249 19.2613C123.245 19.2376 123.026 19.1457 122.751 19.0622C122.032 18.8347 120.836 18.2242 119.914 17.6137C117.647 16.11 115.96 13.6879 115.445 11.1908C115.398 10.9472 115.314 10.7442 115.262 10.7442C115.21 10.748 115.107 11.0069 115.031 11.3264ZM84.5264 41.1605C84.498 45.8324 84.4505 50.1488 84.4222 50.7593C84.3908 51.4939 84.4023 51.8608 84.4544 51.8608C84.5225 51.8608 84.8611 51.346 85.3123 50.5563C85.8025 49.6899 87.2794 47.5635 88.1051 46.5225C88.8711 45.5528 90.7019 43.7619 91.6594 43.0395C93.6824 41.5152 95.8448 40.5179 98.2102 40.0238C98.6453 39.9319 98.9923 39.82 98.9762 39.7764C98.9609 39.7319 98.7609 39.6285 98.5373 39.5489C96.1435 38.6787 93.87 37.6254 90.2476 35.6989C89.5015 35.2999 88.5195 34.7774 88.0569 34.5339C87.598 34.2903 87.1874 34.0674 87.143 34.0314C87.0994 33.9992 86.5609 33.7081 85.9465 33.3887C85.336 33.0693 84.8014 32.7744 84.7577 32.7384C84.7179 32.6985 84.6581 32.6709 84.6298 32.6709C84.6022 32.6709 84.5539 36.4887 84.5264 41.1605Z" fill="white"/>
<path d="M12.3092 92.9927C13.9569 93.9947 15.7279 94.9882 17.6229 95.9771C19.5264 96.9591 21.3174 98.02 23.001 99.169C24.6923 100.318 26.0727 101.626 27.1504 103.095C28.2236 104.563 28.7621 106.287 28.7621 108.265C28.7621 110.627 28.0834 112.682 26.7353 114.425C25.3948 116.16 23.6475 117.501 21.5012 118.447C19.3503 119.392 17.0722 119.867 14.6708 119.867C11.9139 119.867 9.53245 119.444 7.5217 118.606C5.51095 117.768 3.88703 116.715 2.65453 115.446C1.41744 114.17 0.61161 112.877 0.22861 111.568C-0.14673 110.26 -0.05864 109.159 0.483688 108.265C1.01453 107.331 1.72844 106.493 2.62236 105.76C3.52394 105.026 4.3336 104.435 5.04828 103.989C5.75836 103.541 6.11685 103.318 6.11685 103.318C6.18886 104.818 6.49219 106.302 7.02686 107.77C7.56919 109.239 8.27544 110.576 9.14945 111.776C10.0311 112.981 11.0246 113.942 12.1338 114.664C13.2506 115.378 14.3996 115.734 15.5808 115.734C17.017 115.734 18.297 115.351 19.4261 114.585C20.5514 113.811 21.1182 112.778 21.1182 111.489C21.1182 110.448 20.8984 109.554 20.464 108.808C20.0366 108.054 19.3388 107.324 18.3729 106.621C17.4154 105.919 16.1392 105.138 14.5429 104.276C12.9473 103.414 11.0162 102.325 8.75036 101.004C6.49219 99.7197 4.78095 98.4306 3.61203 97.1422C2.45078 95.8453 1.66486 94.5806 1.24969 93.3443C0.842942 92.0996 0.643782 90.9268 0.643782 89.8177C0.643782 87.5955 1.2696 85.6001 2.52661 83.8329C3.77902 82.0573 5.46269 80.6494 7.56919 79.6038C9.68411 78.5628 12.0135 78.0404 14.5589 78.0404C16.9289 78.0404 19.0515 78.4035 20.9267 79.1251C22.8095 79.8398 24.3254 80.7613 25.4744 81.8857C26.6234 83.0148 27.3297 84.1998 27.597 85.4446C27.872 86.6817 27.5809 87.8146 26.7192 88.8441C25.9616 89.7495 25.0753 90.5515 24.0543 91.2539C23.0332 91.9479 22.235 92.4343 21.6605 92.7216C21.1894 89.4584 20.2005 86.8892 18.6923 85.0141C17.1924 83.1305 15.4046 82.1891 13.3303 82.1891C11.5746 82.1891 10.2264 82.664 9.29269 83.6092C8.36736 84.5591 7.9047 85.6759 7.9047 86.9605C7.9047 87.9739 8.2877 89.0157 9.0537 90.0888C9.8197 91.1658 10.9044 92.131 12.3092 92.9927Z" fill="white"/>
<path d="M56.6526 93.424L45.2101 125.404C44.8148 126.657 44.6992 127.822 44.8593 128.899C45.0186 129.972 45.3097 130.914 45.7371 131.724C46.1714 132.53 46.6226 133.184 47.0929 133.686H41.2843C39.8159 133.686 38.8186 133.176 38.3 132.154C37.7776 131.133 37.9093 129.729 38.6991 127.941L42.3054 119.34C41.1886 119.161 40.1874 118.694 39.3058 117.936C38.4318 117.181 37.8212 116.252 37.4704 115.143L28.2148 90.8387H33.704C34.5657 90.8387 35.3517 91.1015 36.0663 91.6201C36.7764 92.1432 37.2628 92.8135 37.5179 93.6308L44.6678 113.643L49.5027 99.0089C49.79 98.1471 50.0298 97.2057 50.2213 96.1847C50.4204 95.1628 50.4602 94.19 50.3331 93.2639C50.2128 92.3309 49.8145 91.5205 49.1358 90.8387H54.769C55.4477 90.8387 55.9862 91.1099 56.3807 91.6522C56.7721 92.1869 56.864 92.7775 56.6526 93.424Z" fill="white"/>
<path d="M67.0745 111.76C67.0745 112.762 67.1258 113.795 67.2338 114.856C67.3495 115.909 67.4889 116.851 67.649 117.68C67.8083 118.502 67.9561 119.069 68.0956 119.388H63.5317C62.3827 119.388 61.413 118.997 60.6271 118.207C59.8373 117.421 59.4459 116.451 59.4459 115.302V84.1676C59.4459 83.1703 59.39 82.153 59.2866 81.1197C59.1785 80.0787 59.0514 79.1488 58.9036 78.3269C58.7641 77.4973 58.604 76.9029 58.4248 76.5398H62.9886C64.1376 76.5398 65.1036 76.9465 65.8933 77.7524C66.6792 78.5628 67.0745 79.5203 67.0745 80.6249V111.76Z" fill="white"/>
<path d="M84.8144 90.2964C88.0462 90.2964 90.6751 90.9904 92.6981 92.3707C94.7165 93.7549 96.201 95.5703 97.1501 97.8124C98.1076 100.047 98.5863 102.472 98.5863 105.089C98.5863 107.738 98.1076 110.188 97.1501 112.43C96.201 114.664 94.7165 116.476 92.6981 117.856C90.6751 119.24 88.0462 119.931 84.8144 119.931C81.5911 119.931 78.966 119.24 76.9468 117.856C74.9238 116.476 73.4363 114.664 72.4788 112.43C71.5289 110.188 71.0586 107.738 71.0586 105.089C71.0586 102.472 71.5289 100.047 72.4788 97.8124C73.4363 95.5703 74.9238 93.7549 76.9468 92.3707C78.966 90.9904 81.5911 90.2964 84.8144 90.2964ZM84.8144 116.867C86.3541 116.867 87.595 115.925 88.5326 114.042C89.4663 112.159 89.9367 109.174 89.9367 105.089C89.9367 101.036 89.4663 98.0675 88.5326 96.1846C87.595 94.3018 86.3541 93.3604 84.8144 93.3604C83.2824 93.3604 82.0453 94.3018 81.1123 96.1846C80.1748 98.0675 79.7075 101.036 79.7075 105.089C79.7075 109.174 80.1748 112.159 81.1123 114.042C82.0453 115.925 83.2824 116.867 84.8144 116.867Z" fill="white"/>
<path d="M129.004 111.76C129.004 112.762 129.056 113.795 129.163 114.856C129.279 115.909 129.419 116.851 129.578 117.681C129.737 118.503 129.885 119.069 130.025 119.388H125.461C124.312 119.388 123.342 118.997 122.556 118.207C121.766 117.421 121.376 116.451 121.376 115.302L121.423 102.297C121.423 99.9671 121.125 98.3072 120.53 97.3176C119.943 96.3286 119.129 95.8614 118.088 95.9135C117.055 95.9694 115.858 96.452 114.498 97.3658C113.133 98.2835 111.681 99.5121 110.141 101.052V111.76C110.141 112.762 110.193 113.795 110.3 114.856C110.404 115.909 110.54 116.851 110.699 117.681C110.859 118.503 111.011 119.069 111.162 119.388H106.598C105.449 119.388 104.479 118.997 103.693 118.207C102.904 117.421 102.513 116.451 102.513 115.302V98.4666C102.513 97.4692 102.453 96.4397 102.338 95.3865C102.23 94.3256 102.102 93.3841 101.955 92.5622C101.814 91.7326 101.659 91.1581 101.491 90.8387H106.056C107.205 90.8387 108.17 91.234 108.96 92.0199C109.746 92.8096 110.141 93.7748 110.141 94.9238V97.9878C112 96.2643 113.592 94.8403 114.912 93.7112C116.241 92.586 117.481 91.7326 118.63 91.1581C119.779 90.5836 121.033 90.2964 122.397 90.2964C124.192 90.2964 125.557 90.6112 126.482 91.2378C127.416 91.8682 128.055 92.7499 128.397 93.8866C128.736 95.0157 128.924 96.36 128.956 97.9242C128.988 99.48 129.004 101.187 129.004 103.046V111.76Z" fill="white"/>
<path d="M146.633 90.2964C149.865 90.2964 152.493 90.9904 154.516 92.3707C156.535 93.7549 158.019 95.5703 158.968 97.8124C159.926 100.047 160.405 102.472 160.405 105.089C160.405 107.738 159.926 110.188 158.968 112.43C158.019 114.664 156.535 116.476 154.516 117.856C152.493 119.24 149.865 119.931 146.633 119.931C143.409 119.931 140.784 119.24 138.765 117.856C136.743 116.476 135.255 114.664 134.297 112.43C133.347 110.188 132.877 107.738 132.877 105.089C132.877 102.472 133.347 100.047 134.297 97.8124C135.255 95.5703 136.743 93.7549 138.765 92.3707C140.784 90.9904 143.409 90.2964 146.633 90.2964ZM146.633 116.867C148.173 116.867 149.413 115.925 150.351 114.042C151.285 112.159 151.756 109.174 151.756 105.089C151.756 101.036 151.285 98.0675 150.351 96.1846C149.413 94.3018 148.173 93.3604 146.633 93.3604C145.101 93.3604 143.864 94.3018 142.931 96.1846C141.993 98.0675 141.527 101.036 141.527 105.089C141.527 109.174 141.993 112.159 142.931 114.042C143.864 115.925 145.101 116.867 146.633 116.867Z" fill="white"/>
<path d="M203.794 90.8387C204.472 90.8387 205.015 91.126 205.421 91.7005C205.836 92.275 205.936 92.8893 205.725 93.5351L196.693 119.388H193.15C191.849 119.388 190.664 119.017 189.591 118.271C188.514 117.517 187.78 116.527 187.389 115.302L183.303 103.589L177.814 119.388H175.245C173.944 119.388 172.759 119.017 171.686 118.271C170.609 117.517 169.858 116.527 169.435 115.302L160.93 90.8387H165.67C166.563 90.8387 167.361 91.09 168.063 91.5887C168.765 92.0912 169.26 92.7538 169.547 93.5833L175.93 113.531L180.016 101.865C180.419 100.505 180.611 99.2601 180.591 98.1311C180.567 96.9943 180.399 95.8453 180.08 94.6841C179.76 93.5151 179.346 92.2352 178.835 90.8387H183.351C184.213 90.8387 184.999 91.09 185.713 91.5887C186.435 92.0912 186.942 92.7538 187.229 93.5833L193.676 113.467L199.597 96.488C199.948 95.339 200.124 94.3011 200.124 93.3757C200.124 92.442 199.748 91.5963 199.006 90.8387H203.794Z" fill="white"/>
</svg>
